<svg width="900" height="900" viewBox="0 0 900 900" fill="none" xmlns="http://www.w3.org/2000/svg">
<rect width="900" height="900" fill="#241818" style="fill:#241818;fill:color(display-p3 0.1412 0.0941 0.0941);fill-opacity:1;"/>
<path d="M122.72 506.959C131.26 506.446 139.801 505.933 148.377 505.457C166.228 504.43 184.041 503.477 201.892 502.378C209.039 501.938 216.15 501.205 223.407 500.582C225.606 508.352 227.696 515.683 229.858 523.233C213.437 527.705 197.31 532.104 181.219 536.502L181.329 537.455C188.476 538.408 195.587 539.361 202.735 540.277C212.924 541.597 223.151 542.77 233.34 544.199C234.477 544.346 236.126 545.372 236.419 546.325C238.399 552.886 240.085 559.557 242.064 566.851C208.453 568.94 175.061 571.03 141.157 573.119C139.471 567.144 137.785 561.316 136.025 555.085C154.242 554.389 171.909 553.693 189.613 552.996C189.613 552.74 189.649 552.483 189.686 552.226C186.057 551.677 182.429 550.98 178.763 550.577C168.427 549.367 158.054 548.231 147.681 547.205C145.702 547.022 144.822 546.472 144.382 544.493C143.503 540.461 142.293 536.502 141.083 531.957C155.085 528.365 169.087 524.736 183.052 521.144C183.015 520.814 182.942 520.484 182.905 520.155C164.615 521.841 146.288 523.49 127.668 525.213C126.019 519.531 124.369 513.997 122.757 508.425C122.757 507.912 122.757 507.399 122.757 506.923L122.72 506.959Z" fill="#FBF4E4" style="fill:#FBF4E4;fill:color(display-p3 0.9843 0.9569 0.8941);fill-opacity:1;"/>
<path d="M769.913 542.99C765.844 557.248 761.885 571.103 757.853 585.288C752.649 582.576 747.957 580.01 743.155 577.628C740.48 576.308 741.873 574.365 742.312 572.789C743.889 566.851 745.648 560.913 747.444 555.049C748.104 552.85 747.554 551.64 745.465 550.614C740.003 547.901 734.652 544.969 728.897 541.927C726.991 548.671 725.195 555.049 723.326 561.72C718.194 559.117 713.21 556.662 708.335 553.949C707.638 553.546 707.198 551.75 707.455 550.797C708.774 545.702 710.351 540.681 711.743 535.586C712 534.67 711.963 532.947 711.487 532.69C705.292 529.171 698.988 525.836 692.06 522.097C689.641 530.344 687.405 538.078 685.023 546.215C679.598 543.356 674.54 540.717 669.592 537.968C669.115 537.712 668.822 536.429 669.005 535.806C672.891 522.464 676.813 509.159 680.918 495.304C710.497 511.175 740.04 526.972 769.949 543.027L769.913 542.99Z" fill="#FBF4E4" style="fill:#FBF4E4;fill:color(display-p3 0.9843 0.9569 0.8941);fill-opacity:1;"/>
<path d="M588.147 685.755C594.159 682.602 600.243 679.45 606.438 676.225C608.014 681.43 609.553 686.341 611.056 691.253C611.569 692.975 611.569 694.148 609.48 695.101C605.081 697.154 600.903 699.683 596.614 701.992C594.379 703.202 593.462 704.485 594.415 707.344C596.431 713.281 597.897 719.403 599.803 726.184C607.061 722.225 614.135 718.413 621.832 714.234C623.115 718.193 624.544 722.078 625.644 726.037C627.403 732.525 627.257 732.378 621.172 735.493C611.056 740.698 601.05 746.16 591.006 751.511C590.273 751.914 589.504 752.317 588.477 752.831C579.131 720.356 569.894 688.137 560.547 655.552C573.193 648.771 585.985 641.917 599.18 634.843C600.793 640.268 602.442 645.362 603.798 650.531C604.018 651.374 603.212 653.06 602.406 653.536C597.128 656.652 591.776 659.657 586.278 662.37C583.236 663.873 581.916 665.192 583.309 668.894C585.325 674.282 586.571 680 588.184 685.718L588.147 685.755Z" fill="#FBF4E4" style="fill:#FBF4E4;fill:color(display-p3 0.9843 0.9569 0.8941);fill-opacity:1;"/>
<path d="M306.756 265.339C303.274 256.249 299.865 247.489 296.566 238.692C292.864 228.869 289.162 219.009 285.497 209.149C281.502 198.446 277.433 187.78 273.658 177.004C271.532 170.993 271.715 170.846 276.737 167.584C287.036 160.95 297.373 154.389 308.259 147.461C310.311 152.959 312.364 158.274 314.197 163.625C314.416 164.322 313.537 165.788 312.767 166.301C307.342 169.893 301.918 173.558 296.236 176.674C293.597 178.14 293.744 179.606 294.624 181.769C296.859 187.377 299.059 192.985 301.404 198.923C307.049 195.331 312.584 191.812 318.778 187.89C321.014 193.791 323.14 199.399 325.339 205.3C319.585 209.039 313.83 212.778 307.929 216.59C310.568 223.664 313.207 230.665 316.066 238.289C323.287 233.707 330.067 229.382 337.215 224.873C339.304 230.298 341.357 235.393 343.226 240.561C343.446 241.221 342.97 242.614 342.383 242.98C331.13 250.311 319.805 257.532 308.479 264.789C308.075 265.046 307.526 265.046 306.719 265.266L306.756 265.339Z" fill="#FBF4E4" style="fill:#FBF4E4;fill:color(display-p3 0.9843 0.9569 0.8941);fill-opacity:1;"/>
<path d="M777.317 386.003C749.644 387.396 722.337 388.752 694.737 390.108C696.753 397.842 698.695 405.282 700.968 413.969C694.883 413.969 689.422 414.043 683.961 413.859C683.264 413.859 682.275 412.503 682.018 411.624C679.636 403.193 677.4 394.763 675.127 386.296C673.954 381.971 672.818 377.609 671.535 372.881C678.426 372.551 684.804 372.184 691.145 371.891C713.247 370.865 735.386 369.875 757.488 368.812C761.593 368.629 765.698 368.189 769.803 367.749C771.929 367.529 772.955 368.226 773.432 370.425C774.532 375.446 775.924 380.395 777.354 385.966L777.317 386.003Z" fill="#FBF4E4" style="fill:#FBF4E4;fill:color(display-p3 0.9843 0.9569 0.8941);fill-opacity:1;"/>
<path d="M504.212 121.877C501.719 120.558 498.75 120.081 496.001 119.238H483.869C478.041 120.961 472.653 123.307 468.511 128.072C463.416 133.936 461.437 141.157 459.311 148.304C456.745 157.101 454.253 165.935 451.944 174.768C449.781 183.125 447.619 191.519 445.969 199.986C444.87 205.667 446.042 211.385 451.027 214.83C454.18 216.993 458.285 218.312 462.097 218.899C472.396 220.475 481.89 218.752 489.294 210.432C493.985 205.191 495.928 198.666 497.797 192.179C502.562 175.538 507.254 158.86 511.579 142.073C513.338 135.182 512.825 126.422 504.212 121.84V121.877ZM492.043 144.016C489.807 153.399 487.058 162.709 484.455 172.019C482.513 179.02 480.46 185.984 478.518 192.948C476.941 198.556 474.522 201.232 470.71 201.305C466.715 201.379 465.505 200.132 465.615 194.634C466.495 191.336 467.668 186.607 468.988 181.879C472.213 170.15 475.402 158.421 478.811 146.765C479.58 144.089 481.12 141.523 482.696 139.214C484.565 136.465 487.901 136.355 490.1 137.931C491.53 138.958 492.446 142.183 492.006 144.052L492.043 144.016Z" fill="#FBF4E4" style="fill:#FBF4E4;fill:color(display-p3 0.9843 0.9569 0.8941);fill-opacity:1;"/>
<path d="M450.879 684.911C441.533 683.225 432.039 682.566 422.509 681.429C411.807 713.611 401.287 745.426 390.584 777.572C395.093 778.121 399.308 778.598 403.486 779.148C407.701 779.661 411.917 780.431 416.168 780.687C427.861 781.42 439.077 777.498 444.612 765.219C447.91 757.962 450.586 750.411 453.152 742.861C457 731.498 460.409 719.989 464.221 708.59C468.18 696.824 463.085 687.147 450.879 684.911ZM443.512 713.611C439.004 727.943 434.055 742.164 429.18 756.386C427.238 762.104 423.023 763.68 414.995 761.847C421.776 741.541 428.484 721.492 435.192 701.479C446.151 701.882 446.481 704.081 443.512 713.611Z" fill="#FBF4E4" style="fill:#FBF4E4;fill:color(display-p3 0.9843 0.9569 0.8941);fill-opacity:1;"/>
<path d="M301.48 629.016C301.004 628.612 299.794 628.539 299.171 628.869C291.181 632.901 283.19 637.006 275.237 641.185C258.779 649.762 242.358 658.375 225.938 666.989C219.67 670.287 213.402 673.586 206.804 677.032C211.203 680.954 215.051 684.582 219.157 687.881C220.073 688.614 222.126 688.688 223.225 688.174C227.037 686.342 230.703 684.143 234.514 682.017C238.143 685.315 241.625 688.468 245.437 691.913C241.625 695.542 238.18 698.877 234.698 702.176C239.463 706.465 243.898 710.46 248.626 714.712C271.828 691.07 294.846 667.648 318.085 643.97C312.99 639.352 307.308 634.147 301.517 629.052L301.48 629.016ZM265.963 672.927C264.057 674.723 262.188 676.592 260.355 678.461C258.816 680.037 257.35 679.854 255.883 678.425C254.197 676.775 252.585 675.052 250.532 672.963C262.554 666.292 274.32 659.731 286.086 653.207C286.233 653.427 286.416 653.683 286.563 653.903C279.672 660.244 272.781 666.585 265.927 672.963L265.963 672.927Z" fill="#FBF4E4" style="fill:#FBF4E4;fill:color(display-p3 0.9843 0.9569 0.8941);fill-opacity:1;"/>
<path d="M206.802 346.417C207.608 344.511 208.341 342.935 209.001 341.322C213.803 330.142 214.242 318.853 204.822 310.35C195.989 302.396 185.946 295.505 175.573 289.714C167.986 285.462 161.351 287.404 156.88 294.918C151.602 303.789 148.083 313.722 143.941 323.252C143.684 323.875 144.417 325.377 145.151 325.891C152.078 330.839 159.116 335.604 166.08 340.479C178.579 349.202 191.041 357.999 203.54 366.723C211.09 372.001 218.714 377.132 226.411 382.41C228.867 376.582 231.25 370.974 233.705 365.183C224.725 358.915 215.892 352.794 206.765 346.417H206.802ZM193.13 332.342C192.763 333.368 192.324 334.358 191.701 335.86C182.977 329.813 174.51 323.911 166.08 318.083C170.038 307.491 170.222 307.417 179.165 313.465C182.464 315.701 185.726 318.047 189.025 320.283C194.23 323.838 195.146 326.44 193.093 332.342H193.13Z" fill="#FBF4E4" style="fill:#FBF4E4;fill:color(display-p3 0.9843 0.9569 0.8941);fill-opacity:1;"/>
<path d="M689.971 222.234C688.212 218.276 685.28 214.574 682.128 211.495C676.959 206.473 671.168 202.075 665.707 197.346C663.874 195.77 662.555 195.66 660.539 197.346C652.915 203.578 645.071 209.589 637.3 215.637C622.016 227.512 606.731 239.351 591.447 251.19C588.844 253.206 586.205 255.222 583.273 257.458C588.368 261.71 592.913 265.522 597.604 269.407C606.181 262.773 614.575 256.285 623.335 249.541C625.388 251.19 627.221 252.693 629.053 254.196C639.39 262.663 649.872 264.129 660.942 257.202C669.372 251.924 677.326 245.656 684.877 239.168C689.825 234.953 692.977 228.942 690.045 222.271L689.971 222.234ZM663.141 233.047C659.915 235.393 656.837 237.958 653.611 240.304C646.464 245.582 644.008 243.567 638.217 238.068C646.317 231.691 654.417 225.35 662.371 219.119C662.848 219.265 663.104 219.302 663.288 219.449C670.912 225.313 670.838 227.439 663.104 233.084L663.141 233.047Z" fill="#FBF4E4" style="fill:#FBF4E4;fill:color(display-p3 0.9843 0.9569 0.8941);fill-opacity:1;"/>
</svg>
