<svg width="1600" height="900" viewBox="0 0 1600 900" fill="none" xmlns="http://www.w3.org/2000/svg">
<rect width="1600" height="900" fill="#CCFF00" style="fill:#CCFF00;fill:color(display-p3 0.8000 1.0000 0.0000);fill-opacity:1;"/>
<path d="M472.72 506.959C481.26 506.446 489.801 505.933 498.377 505.457C516.228 504.43 534.041 503.477 551.892 502.378C559.039 501.938 566.15 501.205 573.407 500.582C575.606 508.352 577.696 515.683 579.858 523.233C563.437 527.705 547.31 532.104 531.219 536.502L531.329 537.455C538.476 538.408 545.587 539.361 552.735 540.277C562.924 541.597 573.151 542.77 583.34 544.199C584.477 544.346 586.126 545.372 586.419 546.325C588.399 552.886 590.085 559.557 592.064 566.851C558.453 568.94 525.061 571.03 491.157 573.119C489.471 567.144 487.785 561.316 486.025 555.085C504.242 554.389 521.909 553.693 539.613 552.996C539.613 552.74 539.649 552.483 539.686 552.226C536.057 551.677 532.429 550.98 528.763 550.577C518.427 549.367 508.054 548.231 497.681 547.205C495.702 547.022 494.822 546.472 494.382 544.493C493.503 540.461 492.293 536.502 491.083 531.957C505.085 528.365 519.087 524.736 533.052 521.144C533.015 520.814 532.942 520.484 532.905 520.155C514.615 521.841 496.288 523.49 477.668 525.213C476.019 519.531 474.369 513.997 472.757 508.425C472.757 507.912 472.757 507.399 472.757 506.923L472.72 506.959Z" fill="#241818" style="fill:#241818;fill:color(display-p3 0.1412 0.0941 0.0941);fill-opacity:1;"/>
<path d="M1119.91 542.99C1115.84 557.248 1111.89 571.103 1107.85 585.288C1102.65 582.576 1097.96 580.01 1093.16 577.628C1090.48 576.308 1091.87 574.365 1092.31 572.789C1093.89 566.851 1095.65 560.914 1097.44 555.049C1098.1 552.85 1097.55 551.64 1095.46 550.614C1090 547.902 1084.65 544.969 1078.9 541.927C1076.99 548.671 1075.2 555.049 1073.33 561.72C1068.19 559.117 1063.21 556.662 1058.33 553.949C1057.64 553.546 1057.2 551.75 1057.46 550.797C1058.77 545.702 1060.35 540.681 1061.74 535.586C1062 534.67 1061.96 532.947 1061.49 532.69C1055.29 529.172 1048.99 525.836 1042.06 522.097C1039.64 530.344 1037.41 538.078 1035.02 546.216C1029.6 543.357 1024.54 540.717 1019.59 537.968C1019.12 537.712 1018.82 536.429 1019.01 535.806C1022.89 522.464 1026.81 509.159 1030.92 495.304C1060.5 511.175 1090.04 526.972 1119.95 543.027L1119.91 542.99Z" fill="#241818" style="fill:#241818;fill:color(display-p3 0.1412 0.0941 0.0941);fill-opacity:1;"/>
<path d="M938.148 685.755C944.159 682.603 950.243 679.45 956.438 676.225C958.014 681.43 959.553 686.341 961.056 691.253C961.569 692.976 961.569 694.148 959.48 695.101C955.081 697.154 950.903 699.683 946.615 701.992C944.379 703.202 943.462 704.485 944.415 707.344C946.431 713.282 947.897 719.403 949.803 726.184C957.061 722.225 964.135 718.413 971.832 714.235C973.115 718.193 974.545 722.078 975.644 726.037C977.404 732.525 977.257 732.378 971.172 735.494C961.056 740.698 951.05 746.16 941.007 751.511C940.273 751.914 939.504 752.318 938.477 752.831C929.131 720.356 919.894 688.137 910.547 655.552C923.193 648.771 935.985 641.917 949.18 634.843C950.793 640.268 952.442 645.363 953.799 650.531C954.019 651.374 953.212 653.06 952.406 653.536C947.128 656.652 941.776 659.657 936.278 662.37C933.236 663.873 931.916 665.192 933.309 668.894C935.325 674.282 936.571 680 938.184 685.718L938.148 685.755Z" fill="#241818" style="fill:#241818;fill:color(display-p3 0.1412 0.0941 0.0941);fill-opacity:1;"/>
<path d="M656.756 265.339C653.274 256.249 649.865 247.489 646.566 238.692C642.864 228.869 639.162 219.009 635.497 209.149C631.502 198.446 627.433 187.78 623.658 177.004C621.532 170.993 621.715 170.846 626.737 167.584C637.036 160.95 647.373 154.389 658.259 147.461C660.311 152.959 662.364 158.274 664.197 163.625C664.417 164.322 663.537 165.788 662.767 166.301C657.342 169.893 651.918 173.558 646.236 176.674C643.597 178.14 643.744 179.606 644.624 181.769C646.86 187.377 649.059 192.985 651.405 198.923C657.049 195.331 662.584 191.812 668.778 187.89C671.014 193.791 673.14 199.399 675.339 205.3C669.585 209.039 663.83 212.778 657.929 216.59C660.568 223.664 663.207 230.665 666.066 238.289C673.287 233.707 680.068 229.382 687.215 224.873C689.304 230.298 691.357 235.393 693.226 240.561C693.446 241.221 692.97 242.614 692.383 242.98C681.131 250.311 669.805 257.532 658.479 264.789C658.076 265.046 657.526 265.046 656.719 265.266L656.756 265.339Z" fill="#241818" style="fill:#241818;fill:color(display-p3 0.1412 0.0941 0.0941);fill-opacity:1;"/>
<path d="M1127.32 386.003C1099.64 387.396 1072.34 388.752 1044.74 390.108C1046.75 397.842 1048.7 405.282 1050.97 413.969C1044.88 413.969 1039.42 414.043 1033.96 413.859C1033.26 413.859 1032.27 412.503 1032.02 411.624C1029.64 403.193 1027.4 394.763 1025.13 386.296C1023.95 381.971 1022.82 377.609 1021.54 372.881C1028.43 372.551 1034.8 372.184 1041.14 371.891C1063.25 370.865 1085.39 369.875 1107.49 368.812C1111.59 368.629 1115.7 368.189 1119.8 367.749C1121.93 367.529 1122.96 368.226 1123.43 370.425C1124.53 375.446 1125.92 380.395 1127.35 385.966L1127.32 386.003Z" fill="#241818" style="fill:#241818;fill:color(display-p3 0.1412 0.0941 0.0941);fill-opacity:1;"/>
<path d="M854.212 121.877C851.719 120.558 848.751 120.081 846.002 119.238H833.869C828.041 120.961 822.653 123.307 818.511 128.072C813.417 133.936 811.437 141.157 809.311 148.305C806.746 157.101 804.253 165.935 801.944 174.768C799.781 183.125 797.619 191.519 795.969 199.986C794.87 205.667 796.043 211.385 801.028 214.831C804.18 216.993 808.285 218.313 812.097 218.899C822.397 220.475 831.89 218.753 839.294 210.432C843.986 205.191 845.928 198.667 847.797 192.179C852.562 175.538 857.254 158.861 861.579 142.073C863.339 135.183 862.825 126.422 854.212 121.841V121.877ZM842.043 144.016C839.807 153.399 837.058 162.709 834.456 172.019C832.513 179.02 830.46 185.984 828.518 192.949C826.942 198.557 824.522 201.232 820.711 201.306C816.715 201.379 815.506 200.133 815.616 194.635C816.495 191.336 817.668 186.608 818.988 181.879C822.213 170.15 825.402 158.421 828.811 146.765C829.581 144.089 831.12 141.524 832.696 139.214C834.566 136.465 837.901 136.355 840.1 137.932C841.53 138.958 842.446 142.183 842.006 144.053L842.043 144.016Z" fill="#241818" style="fill:#241818;fill:color(display-p3 0.1412 0.0941 0.0941);fill-opacity:1;"/>
<path d="M800.879 684.912C791.533 683.226 782.039 682.566 772.51 681.429C761.807 713.611 751.287 745.427 740.584 777.572C745.093 778.121 749.308 778.598 753.486 779.148C757.702 779.661 761.917 780.431 766.168 780.687C777.861 781.42 789.077 777.498 794.612 765.219C797.91 757.962 800.586 750.411 803.152 742.861C807.001 731.498 810.409 719.989 814.221 708.59C818.18 696.824 813.085 687.147 800.879 684.912ZM793.512 713.611C789.004 727.943 784.055 742.164 779.18 756.386C777.238 762.104 773.023 763.68 764.996 761.847C771.776 741.541 778.484 721.492 785.192 701.479C796.151 701.882 796.481 704.081 793.512 713.611Z" fill="#241818" style="fill:#241818;fill:color(display-p3 0.1412 0.0941 0.0941);fill-opacity:1;"/>
<path d="M651.481 629.016C651.004 628.613 649.795 628.539 649.171 628.869C641.181 632.901 633.19 637.006 625.237 641.185C608.779 649.762 592.358 658.375 575.938 666.989C569.67 670.288 563.402 673.586 556.805 677.032C561.203 680.954 565.052 684.582 569.157 687.881C570.073 688.614 572.126 688.688 573.225 688.174C577.037 686.342 580.703 684.143 584.515 682.017C588.143 685.316 591.625 688.468 595.437 691.913C591.625 695.542 588.18 698.877 584.698 702.176C589.463 706.465 593.898 710.46 598.626 714.712C621.828 691.07 644.846 667.649 668.085 643.97C662.99 639.352 657.308 634.147 651.517 629.052L651.481 629.016ZM615.963 672.927C614.057 674.723 612.188 676.592 610.355 678.461C608.816 680.037 607.35 679.854 605.884 678.425C604.197 676.775 602.585 675.053 600.532 672.963C612.555 666.292 624.32 659.731 636.086 653.207C636.233 653.427 636.416 653.684 636.563 653.904C629.672 660.245 622.781 666.586 615.927 672.963L615.963 672.927Z" fill="#241818" style="fill:#241818;fill:color(display-p3 0.1412 0.0941 0.0941);fill-opacity:1;"/>
<path d="M556.802 346.417C557.608 344.511 558.341 342.935 559.001 341.322C563.803 330.143 564.242 318.853 554.823 310.35C545.989 302.396 535.946 295.505 525.573 289.714C517.986 285.462 511.351 287.405 506.88 294.919C501.602 303.789 498.083 313.722 493.941 323.252C493.684 323.875 494.417 325.378 495.151 325.891C502.078 330.839 509.116 335.604 516.08 340.479C528.579 349.202 541.041 357.999 553.54 366.723C561.09 372.001 568.714 377.132 576.411 382.41C578.867 376.583 581.25 370.975 583.706 365.183C574.725 358.916 565.892 352.794 556.765 346.417H556.802ZM543.13 332.342C542.763 333.368 542.324 334.358 541.701 335.86C532.977 329.813 524.51 323.911 516.08 318.083C520.038 307.491 520.222 307.417 529.165 313.465C532.464 315.701 535.726 318.047 539.025 320.283C544.23 323.838 545.146 326.441 543.093 332.342H543.13Z" fill="#241818" style="fill:#241818;fill:color(display-p3 0.1412 0.0941 0.0941);fill-opacity:1;"/>
<path d="M1039.97 222.234C1038.21 218.276 1035.28 214.574 1032.13 211.495C1026.96 206.473 1021.17 202.075 1015.71 197.347C1013.87 195.771 1012.55 195.661 1010.54 197.347C1002.91 203.578 995.071 209.589 987.3 215.637C972.016 227.513 956.731 239.352 941.447 251.191C938.844 253.207 936.205 255.223 933.273 257.458C938.368 261.71 942.913 265.522 947.605 269.407C956.181 262.773 964.575 256.286 973.335 249.541C975.388 251.191 977.221 252.693 979.053 254.196C989.39 262.663 999.872 264.129 1010.94 257.202C1019.37 251.924 1027.33 245.656 1034.88 239.168C1039.82 234.953 1042.98 228.942 1040.04 222.271L1039.97 222.234ZM1013.14 233.047C1009.92 235.393 1006.84 237.959 1003.61 240.305C996.464 245.583 994.008 243.567 988.217 238.069C996.317 231.691 1004.42 225.35 1012.37 219.119C1012.85 219.265 1013.1 219.302 1013.29 219.449C1020.91 225.313 1020.84 227.439 1013.1 233.084L1013.14 233.047Z" fill="#241818" style="fill:#241818;fill:color(display-p3 0.1412 0.0941 0.0941);fill-opacity:1;"/>
</svg>
