<svg width="1200" height="900" viewBox="0 0 1200 900" fill="none" xmlns="http://www.w3.org/2000/svg">
<rect width="1200" height="900" fill="#241818" style="fill:#241818;fill:color(display-p3 0.1412 0.0941 0.0941);fill-opacity:1;"/>
<path d="M272.72 506.959C281.26 506.446 289.801 505.933 298.377 505.457C316.228 504.43 334.041 503.477 351.892 502.378C359.039 501.938 366.15 501.205 373.407 500.582C375.606 508.352 377.696 515.683 379.858 523.233C363.437 527.705 347.31 532.104 331.219 536.502L331.329 537.455C338.476 538.408 345.587 539.361 352.735 540.277C362.924 541.597 373.151 542.77 383.34 544.199C384.477 544.346 386.126 545.372 386.419 546.325C388.399 552.886 390.085 559.557 392.064 566.851C358.453 568.94 325.061 571.03 291.157 573.119C289.471 567.144 287.785 561.316 286.025 555.085C304.242 554.389 321.909 553.693 339.613 552.996C339.613 552.74 339.649 552.483 339.686 552.226C336.057 551.677 332.429 550.98 328.763 550.577C318.427 549.367 308.054 548.231 297.681 547.205C295.702 547.022 294.822 546.472 294.382 544.493C293.503 540.461 292.293 536.502 291.083 531.957C305.085 528.365 319.087 524.736 333.052 521.144C333.015 520.814 332.942 520.484 332.905 520.155C314.615 521.841 296.288 523.49 277.668 525.213C276.019 519.531 274.369 513.997 272.757 508.425C272.757 507.912 272.757 507.399 272.757 506.923L272.72 506.959Z" fill="#CCFF00" style="fill:#CCFF00;fill:color(display-p3 0.8000 1.0000 0.0000);fill-opacity:1;"/>
<path d="M919.913 542.99C915.844 557.248 911.885 571.103 907.853 585.288C902.649 582.576 897.957 580.01 893.155 577.628C890.48 576.308 891.873 574.365 892.312 572.789C893.889 566.851 895.648 560.913 897.444 555.049C898.104 552.85 897.554 551.64 895.465 550.614C890.003 547.901 884.652 544.969 878.897 541.927C876.991 548.671 875.195 555.049 873.326 561.72C868.194 559.117 863.21 556.662 858.335 553.949C857.638 553.546 857.198 551.75 857.455 550.797C858.774 545.702 860.351 540.681 861.743 535.586C862 534.67 861.963 532.947 861.487 532.69C855.292 529.171 848.988 525.836 842.06 522.097C839.641 530.344 837.405 538.078 835.023 546.215C829.598 543.356 824.54 540.717 819.592 537.968C819.115 537.712 818.822 536.429 819.005 535.806C822.891 522.464 826.813 509.159 830.918 495.304C860.497 511.175 890.04 526.972 919.949 543.027L919.913 542.99Z" fill="#CCFF00" style="fill:#CCFF00;fill:color(display-p3 0.8000 1.0000 0.0000);fill-opacity:1;"/>
<path d="M738.147 685.755C744.159 682.602 750.243 679.45 756.438 676.225C758.014 681.43 759.553 686.341 761.056 691.253C761.569 692.975 761.569 694.148 759.48 695.101C755.081 697.154 750.903 699.683 746.614 701.992C744.379 703.202 743.462 704.485 744.415 707.344C746.431 713.281 747.897 719.403 749.803 726.184C757.061 722.225 764.135 718.413 771.832 714.234C773.115 718.193 774.544 722.078 775.644 726.037C777.403 732.525 777.257 732.378 771.172 735.493C761.056 740.698 751.05 746.16 741.006 751.511C740.273 751.914 739.504 752.317 738.477 752.831C729.131 720.356 719.894 688.137 710.547 655.552C723.193 648.771 735.985 641.917 749.18 634.843C750.793 640.268 752.442 645.362 753.798 650.531C754.018 651.374 753.212 653.06 752.406 653.536C747.128 656.652 741.776 659.657 736.278 662.37C733.236 663.873 731.916 665.192 733.309 668.894C735.325 674.282 736.571 680 738.184 685.718L738.147 685.755Z" fill="#CCFF00" style="fill:#CCFF00;fill:color(display-p3 0.8000 1.0000 0.0000);fill-opacity:1;"/>
<path d="M456.756 265.339C453.274 256.249 449.865 247.489 446.566 238.692C442.864 228.869 439.162 219.009 435.497 209.149C431.502 198.446 427.433 187.78 423.658 177.004C421.532 170.993 421.715 170.846 426.737 167.584C437.036 160.95 447.373 154.389 458.259 147.461C460.311 152.959 462.364 158.274 464.197 163.625C464.416 164.322 463.537 165.788 462.767 166.301C457.342 169.893 451.918 173.558 446.236 176.674C443.597 178.14 443.744 179.606 444.624 181.769C446.859 187.377 449.059 192.985 451.404 198.923C457.049 195.331 462.584 191.812 468.778 187.89C471.014 193.791 473.14 199.399 475.339 205.3C469.585 209.039 463.83 212.778 457.929 216.59C460.568 223.664 463.207 230.665 466.066 238.289C473.287 233.707 480.067 229.382 487.215 224.873C489.304 230.298 491.357 235.393 493.226 240.561C493.446 241.221 492.97 242.614 492.383 242.98C481.13 250.311 469.805 257.532 458.479 264.789C458.075 265.046 457.526 265.046 456.719 265.266L456.756 265.339Z" fill="#CCFF00" style="fill:#CCFF00;fill:color(display-p3 0.8000 1.0000 0.0000);fill-opacity:1;"/>
<path d="M927.317 386.003C899.644 387.396 872.337 388.752 844.737 390.108C846.753 397.842 848.695 405.282 850.968 413.969C844.883 413.969 839.422 414.043 833.961 413.859C833.264 413.859 832.275 412.503 832.018 411.624C829.636 403.193 827.4 394.763 825.127 386.296C823.954 381.971 822.818 377.609 821.535 372.881C828.426 372.551 834.804 372.184 841.145 371.891C863.247 370.865 885.386 369.875 907.488 368.812C911.593 368.629 915.698 368.189 919.803 367.749C921.929 367.529 922.955 368.226 923.432 370.425C924.532 375.446 925.924 380.395 927.354 385.966L927.317 386.003Z" fill="#CCFF00" style="fill:#CCFF00;fill:color(display-p3 0.8000 1.0000 0.0000);fill-opacity:1;"/>
<path d="M654.212 121.877C651.719 120.558 648.75 120.081 646.001 119.238H633.869C628.041 120.961 622.653 123.307 618.511 128.072C613.416 133.936 611.437 141.157 609.311 148.304C606.745 157.101 604.253 165.935 601.944 174.768C599.781 183.125 597.619 191.519 595.969 199.986C594.87 205.667 596.042 211.385 601.027 214.83C604.18 216.993 608.285 218.312 612.097 218.899C622.396 220.475 631.89 218.752 639.294 210.432C643.985 205.191 645.928 198.666 647.797 192.179C652.562 175.538 657.254 158.86 661.579 142.073C663.338 135.182 662.825 126.422 654.212 121.84V121.877ZM642.043 144.016C639.807 153.399 637.058 162.709 634.455 172.019C632.513 179.02 630.46 185.984 628.518 192.948C626.941 198.556 624.522 201.232 620.71 201.305C616.715 201.379 615.505 200.132 615.615 194.634C616.495 191.336 617.668 186.607 618.988 181.879C622.213 170.15 625.402 158.421 628.811 146.765C629.58 144.089 631.12 141.523 632.696 139.214C634.565 136.465 637.901 136.355 640.1 137.931C641.53 138.958 642.446 142.183 642.006 144.052L642.043 144.016Z" fill="#CCFF00" style="fill:#CCFF00;fill:color(display-p3 0.8000 1.0000 0.0000);fill-opacity:1;"/>
<path d="M600.879 684.911C591.533 683.225 582.039 682.565 572.509 681.429C561.807 713.611 551.287 745.426 540.584 777.571C545.093 778.121 549.308 778.598 553.486 779.148C557.701 779.661 561.917 780.43 566.168 780.687C577.861 781.42 589.077 777.498 594.612 765.219C597.91 757.962 600.586 750.411 603.152 742.861C607 731.498 610.409 719.989 614.221 708.589C618.18 696.824 613.085 687.147 600.879 684.911ZM593.512 713.611C589.004 727.943 584.055 742.164 579.18 756.386C577.238 762.104 573.023 763.68 564.995 761.847C571.776 741.541 578.484 721.492 585.192 701.479C596.151 701.882 596.481 704.081 593.512 713.611Z" fill="#CCFF00" style="fill:#CCFF00;fill:color(display-p3 0.8000 1.0000 0.0000);fill-opacity:1;"/>
<path d="M451.48 629.016C451.004 628.612 449.794 628.539 449.171 628.869C441.181 632.901 433.19 637.006 425.237 641.185C408.779 649.762 392.358 658.375 375.938 666.989C369.67 670.287 363.402 673.586 356.804 677.032C361.203 680.954 365.051 684.582 369.157 687.881C370.073 688.614 372.126 688.688 373.225 688.174C377.037 686.342 380.703 684.143 384.514 682.017C388.143 685.315 391.625 688.468 395.437 691.913C391.625 695.542 388.18 698.877 384.698 702.176C389.463 706.465 393.898 710.46 398.626 714.712C421.828 691.07 444.846 667.648 468.085 643.97C462.99 639.352 457.308 634.147 451.517 629.052L451.48 629.016ZM415.963 672.927C414.057 674.723 412.188 676.592 410.355 678.461C408.816 680.037 407.35 679.854 405.883 678.425C404.197 676.775 402.585 675.052 400.532 672.963C412.554 666.292 424.32 659.731 436.086 653.207C436.233 653.427 436.416 653.683 436.563 653.903C429.672 660.244 422.781 666.585 415.927 672.963L415.963 672.927Z" fill="#CCFF00" style="fill:#CCFF00;fill:color(display-p3 0.8000 1.0000 0.0000);fill-opacity:1;"/>
<path d="M356.802 346.417C357.608 344.511 358.341 342.935 359.001 341.322C363.803 330.142 364.242 318.853 354.822 310.35C345.989 302.396 335.946 295.505 325.573 289.714C317.986 285.462 311.351 287.404 306.88 294.918C301.602 303.789 298.083 313.722 293.941 323.252C293.684 323.875 294.417 325.377 295.151 325.891C302.078 330.839 309.116 335.604 316.08 340.479C328.579 349.202 341.041 357.999 353.54 366.723C361.09 372.001 368.714 377.132 376.411 382.41C378.867 376.582 381.25 370.974 383.705 365.183C374.725 358.915 365.892 352.794 356.765 346.417H356.802ZM343.13 332.342C342.763 333.368 342.324 334.358 341.701 335.86C332.977 329.813 324.51 323.911 316.08 318.083C320.038 307.49 320.222 307.417 329.165 313.465C332.464 315.701 335.726 318.047 339.025 320.283C344.23 323.838 345.146 326.44 343.093 332.342H343.13Z" fill="#CCFF00" style="fill:#CCFF00;fill:color(display-p3 0.8000 1.0000 0.0000);fill-opacity:1;"/>
<path d="M839.971 222.234C838.212 218.276 835.28 214.574 832.128 211.495C826.959 206.473 821.168 202.075 815.707 197.346C813.874 195.77 812.555 195.66 810.539 197.346C802.915 203.578 795.071 209.589 787.3 215.637C772.016 227.512 756.731 239.351 741.447 251.19C738.844 253.206 736.205 255.222 733.273 257.458C738.368 261.71 742.913 265.522 747.604 269.407C756.181 262.773 764.575 256.285 773.335 249.541C775.388 251.19 777.221 252.693 779.053 254.196C789.39 262.663 799.872 264.129 810.942 257.202C819.372 251.924 827.326 245.656 834.877 239.168C839.825 234.953 842.977 228.942 840.045 222.271L839.971 222.234ZM813.141 233.047C809.915 235.393 806.837 237.958 803.611 240.304C796.464 245.582 794.008 243.567 788.217 238.068C796.317 231.691 804.417 225.35 812.371 219.119C812.848 219.265 813.104 219.302 813.288 219.449C820.912 225.313 820.838 227.439 813.104 233.084L813.141 233.047Z" fill="#CCFF00" style="fill:#CCFF00;fill:color(display-p3 0.8000 1.0000 0.0000);fill-opacity:1;"/>
</svg>
